<svg xmlns="http://www.w3.org/2000/svg" width="119" height="20" fill="none" viewBox="0 0 119 20"><path fill="#fff" d="M9.32 14.14c0-.33-.03-.63-.1-.9a1.7 1.7 0 0 0-.37-.75 3.37 3.37 0 0 0-.83-.69 9.58 9.58 0 0 0-1.4-.7c-.68-.3-1.34-.6-1.99-.92A9.37 9.37 0 0 1 2.9 9.03a4.96 4.96 0 0 1-1.23-1.52 4.6 4.6 0 0 1-.44-2.08 4.62 4.62 0 0 1 1.64-3.75C3.38 1.23 3.99.88 4.7.63 5.4.38 6.2.26 7.07.26a6.1 6.1 0 0 1 3.07.74 5.04 5.04 0 0 1 2.02 2.02c.48.85.73 1.83.73 2.94H9.18c0-.52-.08-.98-.23-1.38-.14-.4-.38-.73-.7-.95a2.1 2.1 0 0 0-1.24-.35c-.48 0-.87.1-1.18.3-.3.18-.54.44-.69.77-.14.32-.21.69-.21 1.1 0 .3.07.57.21.82.15.23.36.45.62.64.27.19.57.37.93.55.36.18.76.35 1.2.52.83.33 1.57.7 2.22 1.1.64.38 1.18.82 1.6 1.31.44.48.77 1.03.99 1.64a6.1 6.1 0 0 1-.08 4.19 4.5 4.5 0 0 1-1.16 1.62c-.5.45-1.12.8-1.84 1.05a8.12 8.12 0 0 1-4.81.01 5.2 5.2 0 0 1-3.38-3 6.9 6.9 0 0 1-.5-2.73h3.73c0 .56.05 1.04.16 1.44.11.39.28.7.51.94.23.23.51.4.84.52.34.1.72.16 1.16.16.49 0 .88-.1 1.16-.28.3-.18.51-.43.64-.75.12-.3.19-.66.19-1.06ZM23.84.52h3.7v12.7c0 1.41-.25 2.57-.78 3.47a4.66 4.66 0 0 1-2.14 1.95c-.92.41-1.96.61-3.14.61-1.18 0-2.24-.2-3.16-.6a4.65 4.65 0 0 1-2.16-1.96c-.5-.9-.76-2.06-.76-3.48V.51h3.7v12.7c0 .8.1 1.42.27 1.85.19.44.46.73.8.9.36.15.8.22 1.31.22.53 0 .96-.07 1.3-.23.34-.16.6-.45.78-.89.19-.43.28-1.04.28-1.85V.51ZM36.7 12.49h-3.78V9.4h3.78c.52 0 .95-.12 1.28-.35a2 2 0 0 0 .74-.98 4.45 4.45 0 0 0-.01-2.9c-.16-.47-.4-.85-.73-1.14a1.85 1.85 0 0 0-1.28-.43h-2.6V19h-3.7V.52h6.29a6.3 6.3 0 0 1 3.21.78c.9.53 1.58 1.25 2.06 2.17.48.92.72 1.97.72 3.15 0 1.2-.24 2.23-.72 3.11a4.96 4.96 0 0 1-2.06 2.03 6.7 6.7 0 0 1-3.21.73Zm19.08 3.44V19h-8.04v-3.07h8.04ZM48.89.52V19h-3.72V.52h3.72ZM54.69 8v2.98h-6.96V8h6.96ZM55.75.5v3.1h-8.02V.5h8.02Zm2.2 0h5.93c1.24 0 2.3.22 3.16.64a4.5 4.5 0 0 1 2.01 1.88c.47.83.7 1.85.7 3.07 0 1-.14 1.86-.4 2.57a4.83 4.83 0 0 1-2.96 2.88l-1.12.67h-4.81l-.02-3.08h3.34c.5 0 .93-.11 1.26-.33a2 2 0 0 0 .75-.96c.17-.41.25-.9.25-1.44 0-.59-.08-1.09-.23-1.5a1.84 1.84 0 0 0-.7-.97 2.04 2.04 0 0 0-1.23-.34h-2.2V19h-3.73V.52Zm8.4 18.5-3.4-8.24 3.9-.01 3.47 8.07V19h-3.97Zm18.54-9.71v7.62a7.48 7.48 0 0 1-3.12 1.94c-.8.27-1.79.4-2.94.4a7.74 7.74 0 0 1-2.8-.48 5.67 5.67 0 0 1-2.14-1.46 6.66 6.66 0 0 1-1.36-2.46c-.31-1-.47-2.16-.47-3.52V8.18c0-1.33.15-2.5.44-3.49.3-1 .75-1.83 1.32-2.49A5.36 5.36 0 0 1 75.88.73c.8-.32 1.71-.48 2.72-.48 1.38 0 2.52.23 3.41.7.9.46 1.58 1.15 2.03 2.07.47.91.75 2.03.84 3.36h-3.6a5.46 5.46 0 0 0-.39-1.83 1.87 1.87 0 0 0-.82-.94c-.36-.2-.82-.29-1.38-.29-.5 0-.92.09-1.29.27-.36.17-.67.45-.91.84-.25.39-.43.88-.55 1.5-.12.6-.17 1.35-.17 2.23v3.17c0 .87.06 1.62.2 2.24.13.61.33 1.12.6 1.5.27.4.6.68 1.01.86.42.17.9.25 1.46.25a3.15 3.15 0 0 0 1.73-.43c.17-.11.3-.2.42-.25v-3.4h-2.66V9.28h6.36ZM90.31.52l2.82 8.32 2.8-8.32h4.05L95 12.28V19h-3.75v-6.72L86.28.52h4.03Zm12.7 0h3.26l3.77 12.64L113.8.52h2.88L111.43 19h-2.78L103 .52Zm-1.32 0h3.11l.48 12.18V19h-3.6V.52Zm13.57 0h3.12V19h-3.58v-6.3l.46-12.18Z"/></svg>